<svg width="44" height="44" viewBox="0 0 44 44" fill="none" xmlns="http://www.w3.org/2000/svg">
<path d="M38.861 16.8664C38.861 7.55219 31.3109 0.00343704 21.9973 0.00343704C12.8151 0.00343704 5.35981 7.348 5.15287 16.4814C5.14669 16.4787 5.13912 16.4787 5.13362 16.4787C5.1295 16.5612 5.14256 16.6444 5.1405 16.7276C5.13981 16.7736 5.13362 16.8204 5.13362 16.8664C5.13362 17.0342 5.15425 17.1958 5.15906 17.3614C5.34881 28.3188 17.7341 39.8812 21.9973 43.9966C33.9701 34.2897 37.4557 25.2856 38.4629 20.4847C38.4994 20.3163 38.5317 20.1486 38.5626 19.9801C38.6596 19.4631 38.7269 18.9998 38.7737 18.6024C38.7737 18.5976 38.7751 18.5928 38.7751 18.5879C38.9009 17.4783 38.861 16.8664 38.861 16.8664Z" fill="#39AC73"/>
<g clip-path="url(#clip0_224_269)">
<path d="M33.1229 14.3165C33.1229 11.4675 30.8119 9.158 27.9644 9.158C26.8439 9.158 25.8134 9.519 24.9724 10.1295C24.9679 10.1315 24.9639 10.1315 24.9609 10.134C22.9659 11.385 20.7864 9.8545 20.7864 9.8545C20.7864 9.8545 20.7814 9.864 20.7804 9.866C19.7379 8.7405 18.2604 8.024 16.6039 8.024C13.4414 8.024 10.8779 10.5875 10.8779 13.75C10.8019 16.3685 13.7479 24.6025 14.9559 27.8595L15.5539 29.671C15.5804 29.7795 15.6184 29.879 15.6564 29.9825L15.7099 30.1415L15.7159 30.1355C15.7189 30.1435 15.7249 30.149 15.7269 30.153C15.9384 30.606 16.4104 31.2505 16.4104 31.2505L16.4119 31.2405C16.7694 31.685 17.3094 31.975 17.9254 31.975C18.6604 31.975 19.2924 31.567 19.6269 30.967C19.6324 30.957 19.6369 30.9485 19.6424 30.9395C19.7379 30.762 19.8104 30.5715 19.8469 30.3655C19.8479 30.3625 19.8499 30.3605 19.8504 30.3575C20.2059 28.6815 21.6224 22.72 21.6224 22.72C21.6219 22.7035 21.6129 22.6895 21.6129 22.673C21.6129 22.628 21.6324 22.59 21.6379 22.547C21.6479 22.458 21.6564 22.4035 21.6564 22.4035L21.6659 22.4125C21.7804 22.0315 22.1209 21.7475 22.5399 21.7475C22.7404 21.7475 22.9169 21.8235 23.0694 21.933C23.0854 21.942 23.0999 21.9545 23.1159 21.965C23.3249 22.135 23.4654 22.383 23.4654 22.673C23.4654 22.673 25.0974 28.6585 25.2984 30.1625C25.3019 30.186 25.3089 30.2035 25.3109 30.226C25.3359 30.4535 25.3954 30.6695 25.4904 30.8665C25.7769 31.5255 26.2649 31.756 26.4789 31.8275C26.4929 31.8285 26.5059 31.8295 26.5189 31.8315C26.7454 31.9225 26.9894 31.975 27.2484 31.975C27.8474 31.975 28.3784 31.7025 28.7369 31.2785L28.7419 31.2795C28.7419 31.2795 28.7544 31.263 28.7579 31.26C28.7629 31.254 28.7664 31.2495 28.7694 31.2445C28.8379 31.1625 29.1444 30.7805 29.3464 30.3175H29.3489L29.3684 30.2715C29.3699 30.2675 29.3724 30.2655 29.3724 30.2615C29.3734 30.2595 29.3734 30.2585 29.3734 30.2555L29.4454 30.0815C29.4579 30.061 29.4724 30.0415 29.4804 30.019H29.4854L29.5014 29.972C29.5064 29.962 29.5099 29.9495 29.5129 29.941L29.8419 29.032L29.8359 29.033C31.5899 25.0535 32.6224 18.199 32.9784 15.483C33.0654 15.107 33.1229 14.719 33.1229 14.3165Z" fill="white"/>
</g>
<defs>
<clipPath id="clip0_224_269">
<rect width="24" height="24" fill="white" transform="translate(10 8)"/>
</clipPath>
</defs>
</svg>
