<svg width="44" height="44" viewBox="0 0 44 44" fill="none" xmlns="http://www.w3.org/2000/svg">
<path d="M38.861 16.8664C38.861 7.55219 31.3109 0.00343704 21.9973 0.00343704C12.8151 0.00343704 5.35981 7.348 5.15287 16.4814C5.14669 16.4787 5.13912 16.4787 5.13362 16.4787C5.1295 16.5612 5.14256 16.6444 5.1405 16.7276C5.13981 16.7736 5.13362 16.8204 5.13362 16.8664C5.13362 17.0342 5.15425 17.1958 5.15906 17.3614C5.34881 28.3188 17.7341 39.8812 21.9973 43.9966C33.9701 34.2897 37.4557 25.2856 38.4629 20.4847C38.4994 20.3163 38.5317 20.1486 38.5626 19.9801C38.6596 19.4631 38.7269 18.9998 38.7737 18.6024C38.7737 18.5976 38.7751 18.5928 38.7751 18.5879C38.9009 17.4783 38.861 16.8664 38.861 16.8664Z" fill="#39AC73"/>
<g clip-path="url(#clip0_224_269)">
<path d="M26.8969 7.791C26.8504 7.791 26.8039 7.79437 26.7581 7.79625C26.7495 7.79587 26.7446 7.79437 26.7352 7.794C26.1491 7.77675 25.9579 7.539 25.9579 7.539C25.9579 7.539 25.9556 7.54162 25.9545 7.54275C25.0016 6.58425 23.6914 5.99062 22.2409 5.99062C20.1514 5.99062 18.3487 7.22175 17.4926 9.00262C17.487 9.01162 17.4829 9.018 17.4776 9.02775C17.2879 9.38062 17.0164 9.39637 16.8855 9.37987C16.8604 9.37612 16.8379 9.369 16.8127 9.366L16.8101 9.36525V9.36562C16.6511 9.3435 16.4891 9.33187 16.3237 9.33187C14.3171 9.33187 12.6877 10.983 12.6877 13.0155C12.6877 14.7495 13.8735 16.203 15.465 16.593L15.4639 16.5964C15.4639 16.5964 15.4789 16.5982 15.4991 16.602C15.5209 16.6065 15.5411 16.6147 15.5632 16.6185C15.699 16.6605 15.9446 16.785 16.0822 17.1615C16.0822 17.1615 16.0822 17.1619 16.0822 17.1626L18.6547 24.201C18.6547 24.201 18.8719 24.8602 19.5994 24.8602H24.3289C24.9724 24.8602 25.2371 24.4511 25.335 24.2306L25.3852 24.0941L25.3864 24.093L27.9769 17.007C27.9769 17.007 28.1235 16.62 28.5784 16.3995C28.5896 16.3939 28.5945 16.3894 28.6031 16.3849C30.1957 15.7072 31.3132 14.1191 31.3132 12.2651C31.3129 9.79612 29.3385 7.791 26.8969 7.791Z" fill="white"/>
<path d="M20.0824 27.4493C19.8027 27.48 19.551 27.5981 19.3624 27.7755C19.221 27.8655 19.0782 28.0027 18.9304 28.1861C18.4654 28.7475 17.7428 29.7675 16.7149 29.424C16.7104 29.424 16.7093 29.4277 16.7048 29.4262C16.4172 29.3674 16.6204 29.5481 16.6853 29.6017C17.2902 30.0416 17.9869 30.2486 18.7797 29.5834C18.7834 29.5811 18.786 29.5811 18.7905 29.5785C19.029 29.4116 19.194 29.5012 19.2769 29.5774C19.2927 29.5957 19.3088 29.6141 19.3257 29.631C19.3335 29.6411 19.3392 29.6494 19.3392 29.6494L19.338 29.6404C19.6005 29.8927 19.9654 30.036 20.3535 29.9951C21.0544 29.919 21.5637 29.2879 21.4898 28.5877C21.4152 27.8846 20.784 27.3758 20.0824 27.4493Z" fill="white"/>
<path d="M27.259 29.466V29.4649C26.2994 29.6842 25.6188 28.7235 25.174 28.1861C25.0263 28.0031 24.8845 27.8659 24.7424 27.7755C24.5538 27.5981 24.3025 27.48 24.0228 27.4493C23.3215 27.3758 22.6893 27.8846 22.6154 28.5874C22.5393 29.2875 23.0508 29.9186 23.7509 29.9947C24.148 30.0352 24.523 29.8879 24.7855 29.6254L24.7878 29.6265C24.7878 29.6265 24.79 29.6227 24.7927 29.6205C24.8035 29.6081 24.8133 29.5957 24.8242 29.583C24.8894 29.5192 25.0525 29.4296 25.3735 29.6261C25.3822 29.6317 25.3837 29.6306 25.3915 29.6351C26.0932 30.183 26.7172 30.0555 27.2684 29.7034C27.6708 29.3981 27.259 29.466 27.259 29.466Z" fill="white"/>
</g>
<defs>
<clipPath id="clip0_224_269">
<rect width="24" height="24" fill="white" transform="translate(10 6)"/>
</clipPath>
</defs>
</svg>
