<svg width="44" height="44" viewBox="0 0 44 44" fill="none" xmlns="http://www.w3.org/2000/svg">
<path d="M38.861 16.8664C38.861 7.55219 31.3109 0.00343704 21.9973 0.00343704C12.8151 0.00343704 5.35981 7.348 5.15287 16.4814C5.14669 16.4787 5.13912 16.4787 5.13362 16.4787C5.1295 16.5612 5.14256 16.6444 5.1405 16.7276C5.13981 16.7736 5.13362 16.8204 5.13362 16.8664C5.13362 17.0342 5.15425 17.1958 5.15906 17.3614C5.34881 28.3188 17.7341 39.8812 21.9973 43.9966C33.9701 34.2897 37.4557 25.2856 38.4629 20.4847C38.4994 20.3163 38.5317 20.1486 38.5626 19.9801C38.6596 19.4631 38.7269 18.9998 38.7737 18.6024C38.7737 18.5976 38.7751 18.5928 38.7751 18.5879C38.9009 17.4783 38.861 16.8664 38.861 16.8664Z" fill="#39AC73"/>
<path d="M25.18 23.52H23.98V24.24H25.18V23.52Z" fill="white"/>
<path d="M23.7233 9.3072C23.668 8.87328 23.4564 8.47439 23.1282 8.18528C22.7999 7.89617 22.3775 7.73668 21.9401 7.73668C21.5027 7.73668 21.0802 7.89617 20.752 8.18528C20.4237 8.47439 20.2121 8.87328 20.1569 9.3072C18.9229 9.36464 17.7586 9.8956 16.9062 10.7896C16.0537 11.6836 15.5787 12.8719 15.5801 14.1072V25.068C15.5807 25.9144 15.9172 26.7259 16.5157 27.3244C17.1142 27.9229 17.9257 28.2594 18.7721 28.26H25.1201C25.9665 28.2594 26.778 27.9229 27.3765 27.3244C27.9749 26.7259 28.3114 25.9144 28.3121 25.068V14.088C28.3083 12.854 27.8295 11.6689 26.975 10.7787C26.1206 9.88845 24.956 9.36149 23.7233 9.3072ZM21.9401 8.22C22.2482 8.22047 22.5464 8.3287 22.7831 8.52595C23.0198 8.72319 23.1801 8.99703 23.2361 9.3H20.6441C20.7001 8.99703 20.8603 8.72319 21.097 8.52595C21.3337 8.3287 21.632 8.22047 21.9401 8.22ZM19.5041 13.62H24.4961V16.56H19.5041V13.62ZM27.8201 25.068C27.8195 25.785 27.5352 26.4726 27.0293 26.9807C26.5234 27.4889 25.8371 27.7762 25.1201 27.78H18.7721C18.053 27.7794 17.3636 27.4934 16.8551 26.985C16.3466 26.4765 16.0607 25.7871 16.0601 25.068V24.132C16.3701 24.4733 16.8001 24.6814 17.2601 24.7128V19.14H26.6201V24.72C27.0801 24.6886 27.5101 24.4805 27.8201 24.1392V25.068Z" fill="white"/>
<path d="M18.64 21.18V21.84H18.16V21.18H17.74V25.92H26.14V21.18H18.64ZM25.66 24.72H23.5V23.04H25.66V24.72Z" fill="white"/>
<path d="M24.0159 14.1H19.9839V16.08H24.0159V14.1Z" fill="white"/>
<path d="M26.14 19.62H17.74V20.7072H26.14V19.62Z" fill="white"/>
</svg>
