<svg width="44" height="44" viewBox="0 0 44 44" fill="none" xmlns="http://www.w3.org/2000/svg">
<path d="M38.861 16.8664C38.861 7.55219 31.3109 0.00343704 21.9973 0.00343704C12.8151 0.00343704 5.35981 7.348 5.15287 16.4814C5.14669 16.4787 5.13912 16.4787 5.13362 16.4787C5.1295 16.5612 5.14256 16.6444 5.1405 16.7276C5.13981 16.7736 5.13362 16.8204 5.13362 16.8664C5.13362 17.0342 5.15425 17.1958 5.15906 17.3614C5.34881 28.3188 17.7341 39.8812 21.9973 43.9966C33.9701 34.2897 37.4557 25.2856 38.4629 20.4847C38.4994 20.3163 38.5317 20.1486 38.5626 19.9801C38.6596 19.4631 38.7269 18.9998 38.7737 18.6024C38.7737 18.5976 38.7751 18.5928 38.7751 18.5879C38.9009 17.4783 38.861 16.8664 38.861 16.8664Z" fill="#F64C4C"/>
<path d="M30.2739 14.8688L26.8325 9.95392L28.4708 8.80676L31.9122 13.7217L30.2739 14.8688Z" fill="white"/>
<path d="M28.3902 17.4086L26.6695 14.9512L18.4779 20.687L20.1986 23.1444L18.5603 24.2916L13.9717 17.7383L15.61 16.5912L17.3307 19.0487L25.5223 13.3129L23.8016 10.8554L25.4399 9.70825L30.0285 16.2615L28.3902 17.4086Z" fill="white"/>
<path d="M30.7651 12.0833L32.4034 10.9362L31.2562 9.29785L29.6179 10.445L30.7651 12.0833Z" fill="white"/>
<path d="M17.1677 24.046L13.7262 19.131L12.0879 20.2782L15.5294 25.1931L17.1677 24.046Z" fill="white"/>
<path d="M14.3821 23.5549L12.7438 24.702L11.5967 23.0637L13.235 21.9166L14.3821 23.5549Z" fill="white"/>
</svg>
