<svg width="44" height="44" viewBox="0 0 44 44" fill="none" xmlns="http://www.w3.org/2000/svg">
<path d="M38.861 16.8664C38.861 7.55219 31.3109 0.00343704 21.9973 0.00343704C12.8151 0.00343704 5.35981 7.348 5.15287 16.4814C5.14669 16.4787 5.13912 16.4787 5.13362 16.4787C5.1295 16.5612 5.14256 16.6444 5.1405 16.7276C5.13981 16.7736 5.13362 16.8204 5.13362 16.8664C5.13362 17.0342 5.15425 17.1958 5.15906 17.3614C5.34881 28.3188 17.7341 39.8812 21.9973 43.9966C33.9701 34.2897 37.4557 25.2856 38.4629 20.4847C38.4994 20.3163 38.5317 20.1486 38.5626 19.9801C38.6596 19.4631 38.7269 18.9998 38.7737 18.6024C38.7737 18.5976 38.7751 18.5928 38.7751 18.5879C38.9009 17.4783 38.861 16.8664 38.861 16.8664Z" fill="#39AC73"/>
<g clip-path="url(#clip0_224_269)">
<path d="M18 24C16.895 24 16.01 24.895 16.01 26C16.01 27.105 16.895 28 18 28C19.105 28 20 27.105 20 26C20 24.895 19.105 24 18 24ZM12 8V10H14L17.595 17.585L16.245 20.035C16.09 20.325 16 20.65 16 21C16 22.105 16.895 23 18 23H30V21H18.425C18.285 21 18.175 20.89 18.175 20.75C18.175 20.705 18.185 20.665 18.205 20.63L19.1 19H26.55C27.3 19 27.955 18.585 28.3 17.97L31.875 11.48C31.955 11.34 32 11.175 32 11C32 10.445 31.55 10 31 10H16.215L15.265 8H12ZM28 24C26.895 24 26.01 24.895 26.01 26C26.01 27.105 26.895 28 28 28C29.105 28 30 27.105 30 26C30 24.895 29.105 24 28 24Z" fill="white"/>
</g>
<defs>
<clipPath id="clip0_224_269">
<rect width="24" height="24" fill="white" transform="translate(11 6)"/>
</clipPath>
</defs>
</svg>
