<svg width="44" height="44" viewBox="0 0 44 44" fill="none" xmlns="http://www.w3.org/2000/svg">
<path d="M38.861 16.8664C38.861 7.55219 31.3109 0.00343704 21.9973 0.00343704C12.8151 0.00343704 5.35981 7.348 5.15287 16.4814C5.14669 16.4787 5.13912 16.4787 5.13362 16.4787C5.1295 16.5612 5.14256 16.6444 5.1405 16.7276C5.13981 16.7736 5.13362 16.8204 5.13362 16.8664C5.13362 17.0342 5.15425 17.1958 5.15906 17.3614C5.34881 28.3188 17.7341 39.8812 21.9973 43.9966C33.9701 34.2897 37.4557 25.2856 38.4629 20.4847C38.4994 20.3163 38.5317 20.1486 38.5626 19.9801C38.6596 19.4631 38.7269 18.9998 38.7737 18.6024C38.7737 18.5976 38.7751 18.5928 38.7751 18.5879C38.9009 17.4783 38.861 16.8664 38.861 16.8664Z" fill="#39AC73"/>
<g clip-path="url(#clip0_224_269)">
<path d="M25.3859 12.7469C25.3906 12.6812 25.4047 12.6156 25.4047 12.55C25.4047 11.4016 24.4719 10.4688 23.3234 10.4688C22.175 10.4688 21.2422 11.4016 21.2422 12.55C21.2422 12.6203 21.2562 12.6812 21.2609 12.7469H25.3859Z" fill="white"/>
<path d="M32.4501 6.9625H29.4079C29.0376 6.9625 28.7001 7.18281 28.5501 7.525L26.0047 13.375H13.4563C12.7063 13.375 12.3313 14.2797 12.861 14.8141L20.8719 22.825V29.5844H17.6469C17.2485 29.5844 16.9204 29.9125 16.9204 30.3109C16.9204 30.7094 17.2485 31.0375 17.6469 31.0375H25.5219C25.9204 31.0375 26.2485 30.7094 26.2485 30.3109C26.2485 29.9125 25.9204 29.5844 25.5219 29.5844H22.2969V22.8203L30.3126 14.8094C30.8422 14.2797 30.4672 13.3703 29.7172 13.3703H28.0438L30.0219 8.83281H32.4501C32.9657 8.83281 33.3876 8.41563 33.3876 7.89531C33.3876 7.38438 32.9704 6.9625 32.4501 6.9625Z" fill="white"/>
</g>
<defs>
<clipPath id="clip0_224_269">
<rect width="24" height="24" fill="white" transform="translate(11 7)"/>
</clipPath>
</defs>
</svg>
