<svg width="44" height="44" viewBox="0 0 44 44" fill="none" xmlns="http://www.w3.org/2000/svg">
<path d="M38.861 16.8664C38.861 7.55219 31.3109 0.00343704 21.9973 0.00343704C12.8151 0.00343704 5.35981 7.348 5.15287 16.4814C5.14669 16.4787 5.13912 16.4787 5.13362 16.4787C5.1295 16.5612 5.14256 16.6444 5.1405 16.7276C5.13981 16.7736 5.13362 16.8204 5.13362 16.8664C5.13362 17.0342 5.15425 17.1958 5.15906 17.3614C5.34881 28.3188 17.7341 39.8812 21.9973 43.9966C33.9701 34.2897 37.4557 25.2856 38.4629 20.4847C38.4994 20.3163 38.5317 20.1486 38.5626 19.9801C38.6596 19.4631 38.7269 18.9998 38.7737 18.6024C38.7737 18.5976 38.7751 18.5928 38.7751 18.5879C38.9009 17.4783 38.861 16.8664 38.861 16.8664Z" fill="#39AC73"/>
<path d="M31 9.375H13C11.5525 9.375 10.375 10.5525 10.375 12V24C10.375 25.4475 11.5525 26.625 13 26.625H31C32.4475 26.625 33.625 25.4475 33.625 24V12C33.625 10.5525 32.4475 9.375 31 9.375ZM16.8475 23.3175H14.8075C14.185 23.3175 13.6825 22.815 13.6825 22.1925C13.6825 21.57 14.185 21.0675 14.8075 21.0675H16.8475C17.47 21.0675 17.9725 21.57 17.9725 22.1925C17.9725 22.815 17.47 23.3175 16.8475 23.3175ZM31.375 13.125H12.625V12C12.625 11.79 12.79 11.625 13 11.625H31C31.21 11.625 31.375 11.79 31.375 12V13.125Z" fill="white"/>
</svg>
