<svg width="44" height="44" viewBox="0 0 44 44" fill="none" xmlns="http://www.w3.org/2000/svg">
<path d="M38.861 16.8664C38.861 7.55217 31.3109 0.00341797 21.9973 0.00341797C12.8151 0.00341797 5.35981 7.34798 5.15287 16.4814C5.14669 16.4787 5.13912 16.4787 5.13362 16.4787C5.1295 16.5612 5.14256 16.6444 5.1405 16.7276C5.13981 16.7736 5.13362 16.8204 5.13362 16.8664C5.13362 17.0342 5.15425 17.1958 5.15906 17.3614C5.34881 28.3188 17.7341 39.8812 21.9973 43.9966C33.9701 34.2897 37.4557 25.2856 38.4629 20.4847C38.4994 20.3163 38.5317 20.1486 38.5626 19.9801C38.6596 19.4631 38.7269 18.9998 38.7737 18.6024C38.7737 18.5976 38.7751 18.5928 38.7751 18.5879C38.9009 17.4783 38.861 16.8664 38.861 16.8664Z" fill="#0052CC"/>
<mask id="mask0_270_316" style="mask-type:luminance" maskUnits="userSpaceOnUse" x="10" y="7" width="24" height="24">
<path d="M34 7H10V31H34V7Z" fill="white"/>
</mask>
<g mask="url(#mask0_270_316)">
<path d="M16 10H23C24.5913 10 26.1174 10.6321 27.2426 11.7574C28.3679 12.8826 29 14.4087 29 16C29 17.5913 28.3679 19.1174 27.2426 20.2426C26.1174 21.3679 24.5913 22 23 22H18V28H16V10ZM18 12V20H23C24.0609 20 25.0783 19.5786 25.8284 18.8284C26.5786 18.0783 27 17.0609 27 16C27 14.9391 26.5786 13.9217 25.8284 13.1716C25.0783 12.4214 24.0609 12 23 12H18Z" fill="white"/>
</g>
</svg>
