<svg width="44" height="44" viewBox="0 0 44 44" fill="none" xmlns="http://www.w3.org/2000/svg">
<path d="M38.861 16.8664C38.861 7.55219 31.3109 0.00343704 21.9973 0.00343704C12.8151 0.00343704 5.35981 7.348 5.15287 16.4814C5.14669 16.4787 5.13912 16.4787 5.13362 16.4787C5.1295 16.5612 5.14256 16.6444 5.1405 16.7276C5.13981 16.7736 5.13362 16.8204 5.13362 16.8664C5.13362 17.0342 5.15425 17.1958 5.15906 17.3614C5.34881 28.3188 17.7341 39.8812 21.9973 43.9966C33.9701 34.2897 37.4557 25.2856 38.4629 20.4847C38.4994 20.3163 38.5317 20.1486 38.5626 19.9801C38.6596 19.4631 38.7269 18.9998 38.7737 18.6024C38.7737 18.5976 38.7751 18.5928 38.7751 18.5879C38.9009 17.4783 38.861 16.8664 38.861 16.8664Z" fill="#F64C4C"/>
<g clip-path="url(#clip0_233_361)">
<path d="M21.9459 7.2905C17.4804 7.2905 13.5894 9.8465 12.4659 13.478H11.6409C11.4222 13.4782 11.2063 13.5263 11.0081 13.6188C10.8099 13.7113 10.6344 13.846 10.4938 14.0135C10.3532 14.181 10.2509 14.3772 10.1941 14.5884C10.1373 14.7995 10.1273 15.0206 10.1649 15.236L10.5459 17.426C10.6367 17.9481 10.9089 18.4214 11.3145 18.7625C11.72 19.1036 12.233 19.2906 12.7629 19.2905H13.1574C13.6074 20.06 14.1894 20.7575 14.8749 21.3635L13.7814 25.079C13.7486 25.1909 13.7422 25.3089 13.7629 25.4236C13.7836 25.5384 13.8308 25.6467 13.9007 25.7401C13.9705 25.8334 14.0612 25.9091 14.1655 25.9613C14.2698 26.0134 14.3848 26.0406 14.5014 26.0405H17.5014C17.6562 26.0405 17.8072 25.9927 17.9336 25.9035C18.0601 25.8144 18.1559 25.6883 18.2079 25.5425L18.9309 23.516C19.8834 23.7755 20.8959 23.9165 21.9474 23.9165C23.0079 23.9165 24.0294 23.774 24.9894 23.5085L25.8039 25.5665C25.8593 25.7063 25.9554 25.8263 26.0798 25.9108C26.2041 25.9953 26.3511 26.0405 26.5014 26.0405H29.5014C29.6185 26.0404 29.7338 26.0129 29.8383 25.9602C29.9428 25.9075 30.0336 25.8311 30.1032 25.7371C30.1729 25.643 30.2196 25.534 30.2396 25.4187C30.2596 25.3034 30.2524 25.185 30.2184 25.073L29.0769 21.314C30.7149 19.8425 31.7499 17.8385 31.7499 15.6035C31.7499 15.386 31.7394 15.1685 31.7199 14.957C32.1114 14.792 32.4819 14.558 32.7774 14.291C33.2499 14.75 33.9999 14.75 33.9999 13.6655C33.9999 14 33.2499 14 33.3084 13.6265C33.3714 13.5061 33.4169 13.3773 33.4434 13.244C33.4787 13.0703 33.4694 12.8904 33.4164 12.7213C33.3635 12.5521 33.2685 12.3991 33.1404 12.2765C33.0054 12.1373 32.8276 12.0472 32.6355 12.0206C32.4433 11.9939 32.2478 12.0323 32.0799 12.1295C31.9256 12.2148 31.794 12.3359 31.6961 12.4825C31.5982 12.6292 31.5369 12.7972 31.5174 12.9725C31.4814 13.337 31.6404 13.6925 31.9974 13.9535C31.8736 14.0391 31.7437 14.1158 31.6089 14.183C30.8079 10.187 26.6829 7.2905 21.9459 7.2905ZM32.7054 13.1045C32.6787 13.2185 32.6287 13.3258 32.5584 13.4195C32.536 13.4078 32.514 13.3953 32.4924 13.382C32.2734 13.247 32.2569 13.1195 32.2644 13.0475C32.2718 12.9937 32.2915 12.9423 32.3219 12.8973C32.3523 12.8523 32.3927 12.8149 32.4399 12.788C32.5134 12.7475 32.5599 12.7565 32.6094 12.806C32.6511 12.8423 32.6821 12.8893 32.699 12.9419C32.716 12.9945 32.7182 13.0507 32.7054 13.1045ZM19.2069 12.1295C19.1108 12.1621 19.0091 12.1749 18.908 12.167C18.8068 12.1592 18.7083 12.1309 18.6184 12.0839C18.5285 12.0369 18.449 11.9721 18.3849 11.8935C18.3207 11.8148 18.2732 11.724 18.2451 11.6265C18.2171 11.529 18.2091 11.4268 18.2218 11.3261C18.2344 11.2254 18.2673 11.1283 18.3185 11.0407C18.3697 10.9531 18.4381 10.8769 18.5197 10.8165C18.6012 10.7561 18.6942 10.7129 18.7929 10.6895C19.8183 10.3965 20.8796 10.2486 21.9459 10.25C23.0904 10.25 24.1914 10.415 25.2159 10.7225C25.3103 10.7508 25.3982 10.7973 25.4745 10.8596C25.5509 10.9218 25.6142 10.9984 25.6609 11.0851C25.7077 11.1719 25.7369 11.2669 25.7469 11.3649C25.7569 11.4629 25.7475 11.5619 25.7192 11.6563C25.6909 11.7506 25.6443 11.8385 25.5821 11.9148C25.5199 11.9912 25.4432 12.0545 25.3565 12.1013C25.2698 12.148 25.1748 12.1772 25.0768 12.1872C24.9788 12.1972 24.8798 12.1878 24.7854 12.1595C23.8638 11.8859 22.9073 11.748 21.9459 11.75C20.9859 11.75 20.0634 11.885 19.2069 12.131V12.1295ZM17.4999 14.375C17.4999 14.6734 17.3814 14.9595 17.1704 15.1705C16.9595 15.3815 16.6733 15.5 16.3749 15.5C16.0766 15.5 15.7904 15.3815 15.5794 15.1705C15.3685 14.9595 15.2499 14.6734 15.2499 14.375C15.2499 14.0766 15.3685 13.7905 15.5794 13.5795C15.7904 13.3685 16.0766 13.25 16.3749 13.25C16.6733 13.25 16.9595 13.3685 17.1704 13.5795C17.3814 13.7905 17.4999 14.0766 17.4999 14.375Z" fill="white"/>
</g>
<defs>
<clipPath id="clip0_233_361">
<rect width="24" height="24" fill="white" transform="translate(10 5)"/>
</clipPath>
</defs>
</svg>
