<svg width="44" height="44" viewBox="0 0 44 44" fill="none" xmlns="http://www.w3.org/2000/svg">
<path d="M38.861 16.8664C38.861 7.55219 31.3109 0.00343704 21.9973 0.00343704C12.8151 0.00343704 5.35981 7.348 5.15287 16.4814C5.14669 16.4787 5.13912 16.4787 5.13362 16.4787C5.1295 16.5612 5.14256 16.6444 5.1405 16.7276C5.13981 16.7736 5.13362 16.8204 5.13362 16.8664C5.13362 17.0342 5.15425 17.1958 5.15906 17.3614C5.34881 28.3188 17.7341 39.8812 21.9973 43.9966C33.9701 34.2897 37.4557 25.2856 38.4629 20.4847C38.4994 20.3163 38.5317 20.1486 38.5626 19.9801C38.6596 19.4631 38.7269 18.9998 38.7737 18.6024C38.7737 18.5976 38.7751 18.5928 38.7751 18.5879C38.9009 17.4783 38.861 16.8664 38.861 16.8664Z" fill="#39AC73"/>
<g clip-path="url(#clip0_234_433)">
<path d="M31.4331 8.096C31.0511 7.982 30.6686 7.9285 30.2871 7.907L29.9866 8.9055L29.7206 9.7905L28.0776 15.2505L27.8206 16.104L27.5641 15.2505L25.9211 9.7905L25.6551 8.9055L25.3551 7.907C24.9736 7.9285 24.5911 7.982 24.2091 8.096C21.5836 8.8875 20.0946 11.657 20.8851 14.283C21.5611 16.5295 23.6846 17.9285 25.9261 17.798L26.6191 20.0995L23.6441 29.9845L23.7336 30.0115C25.8526 30.5415 26.4866 28.532 26.4866 28.532L27.8216 24.097L29.1571 28.532C29.1571 28.532 29.7911 30.5415 31.9111 30.0115L31.9996 29.9845L29.0246 20.0995L29.7176 17.798C31.9591 17.9285 34.0826 16.529 34.7581 14.283C35.5476 11.657 34.0586 8.8875 31.4331 8.096ZM22.6916 13.7395C22.3206 12.502 22.7671 11.217 23.7161 10.4535L25.3591 15.914C24.1471 15.803 23.0651 14.9765 22.6916 13.7395ZM32.9506 13.7395C32.5766 14.977 31.4951 15.803 30.2826 15.914L31.9251 10.4535C32.8746 11.217 33.3221 12.502 32.9506 13.7395Z" fill="white"/>
<path d="M12.0865 7.8995H11.031V30.1005H12.0865H13.1415H18.407V27.4835H13.1415V26.3975H15.351H17.3515H18.407V24.2855H17.3515H15.351H13.1415V23.2105H15.351H17.3515H18.407V21.1H17.3515H15.351H13.1415V20.0215H15.351H17.3515H18.407V17.912H17.3515H15.351H13.1415V16.8345H15.351H17.3515H18.407V14.7245H17.3515H15.351H13.1415V13.713H15.351H17.3515H18.407V11.603H17.3515H15.351H13.1415V10.5155H18.407V7.8995H13.1415H12.0865Z" fill="white"/>
</g>
<defs>
<clipPath id="clip0_234_433">
<rect width="24" height="24" fill="white" transform="translate(11 7)"/>
</clipPath>
</defs>
</svg>
