<svg width="44" height="44" viewBox="0 0 44 44" fill="none" xmlns="http://www.w3.org/2000/svg">
<path d="M38.861 16.8664C38.861 7.55219 31.3109 0.00343704 21.9973 0.00343704C12.8151 0.00343704 5.35981 7.348 5.15287 16.4814C5.14669 16.4787 5.13912 16.4787 5.13362 16.4787C5.1295 16.5612 5.14256 16.6444 5.1405 16.7276C5.13981 16.7736 5.13362 16.8204 5.13362 16.8664C5.13362 17.0342 5.15425 17.1958 5.15906 17.3614C5.34881 28.3188 17.7341 39.8812 21.9973 43.9966C33.9701 34.2897 37.4557 25.2856 38.4629 20.4847C38.4994 20.3163 38.5317 20.1486 38.5626 19.9801C38.6596 19.4631 38.7269 18.9998 38.7737 18.6024C38.7737 18.5976 38.7751 18.5928 38.7751 18.5879C38.9009 17.4783 38.861 16.8664 38.861 16.8664Z" fill="#0052CC"/>
<path fill-rule="evenodd" clip-rule="evenodd" d="M31.7501 18.5383C31.7501 18.1243 31.4141 17.7882 31.0001 17.7882H23.5383C23.1243 17.7882 22.7883 18.1243 22.7883 18.5383V26C22.7883 26.414 23.1243 26.75 23.5383 26.75H31.0001C31.4141 26.75 31.7501 26.414 31.7501 26V18.5383Z" fill="white"/>
<path fill-rule="evenodd" clip-rule="evenodd" d="M21.223 18.5383C21.223 18.1243 20.887 17.7882 20.473 17.7882H13.0112C12.5965 17.7882 12.2612 18.1243 12.2612 18.5383V26C12.2612 26.414 12.5965 26.75 13.0112 26.75H20.473C20.887 26.75 21.223 26.414 21.223 26V18.5383Z" fill="white"/>
<path fill-rule="evenodd" clip-rule="evenodd" d="M31.7501 8C31.7501 7.586 31.4141 7.25 31.0001 7.25H23.5383C23.1243 7.25 22.7883 7.586 22.7883 8V15.4618C22.7883 15.8758 23.1243 16.2118 23.5383 16.2118H31.0001C31.4141 16.2118 31.7501 15.8758 31.7501 15.4618V8Z" fill="white"/>
<path fill-rule="evenodd" clip-rule="evenodd" d="M13 11.3465H20.4618C20.8758 11.3465 21.2118 11.0105 21.2118 10.5965C21.2118 10.1825 20.8758 9.8465 20.4618 9.8465H13C12.586 9.8465 12.25 10.1825 12.25 10.5965C12.25 11.0105 12.586 11.3465 13 11.3465Z" fill="white"/>
<path fill-rule="evenodd" clip-rule="evenodd" d="M13 13.6152H20.4618C20.8758 13.6152 21.2118 13.2792 21.2118 12.8652C21.2118 12.4512 20.8758 12.1152 20.4618 12.1152H13C12.586 12.1152 12.25 12.4512 12.25 12.8652C12.25 13.2792 12.586 13.6152 13 13.6152Z" fill="white"/>
</svg>
