<svg width="44" height="44" viewBox="0 0 44 44" fill="none" xmlns="http://www.w3.org/2000/svg">
<path d="M38.861 16.8664C38.861 7.55219 31.3109 0.00343704 21.9973 0.00343704C12.8151 0.00343704 5.35981 7.348 5.15287 16.4814C5.14669 16.4787 5.13912 16.4787 5.13362 16.4787C5.1295 16.5612 5.14256 16.6444 5.1405 16.7276C5.13981 16.7736 5.13362 16.8204 5.13362 16.8664C5.13362 17.0342 5.15425 17.1958 5.15906 17.3614C5.34881 28.3188 17.7341 39.8812 21.9973 43.9966C33.9701 34.2897 37.4557 25.2856 38.4629 20.4847C38.4994 20.3163 38.5317 20.1486 38.5626 19.9801C38.6596 19.4631 38.7269 18.9998 38.7737 18.6024C38.7737 18.5976 38.7751 18.5928 38.7751 18.5879C38.9009 17.4783 38.861 16.8664 38.861 16.8664Z" fill="#0052CC"/>
<mask id="mask0_233_398" style="mask-type:luminance" maskUnits="userSpaceOnUse" x="12" y="7" width="20" height="20">
<path d="M32 7H12V27H32V7Z" fill="white"/>
</mask>
<g mask="url(#mask0_233_398)">
<path d="M17.3301 19.77C16.8193 19.9577 16.2756 20.0392 15.7322 20.0095C15.1888 19.9798 14.6572 19.8396 14.1699 19.5973C13.6826 19.3551 13.2499 19.016 12.8982 18.6007C12.5464 18.1855 12.2832 17.7028 12.1244 17.1823C11.9657 16.6618 11.9148 16.1144 11.9749 15.5735C12.0351 15.0326 12.2049 14.5097 12.4741 14.0368C12.7433 13.5638 13.1062 13.1508 13.5405 12.8229C13.9748 12.4951 14.4715 12.2593 15.0001 12.13V12C14.9995 11.3253 15.1695 10.6613 15.4944 10.07C15.8193 9.47861 16.2885 8.97904 16.8584 8.61776C17.4282 8.25648 18.0802 8.04523 18.7537 8.00366C19.4271 7.96209 20.1002 8.09155 20.7101 8.38C21.1294 7.82664 21.7039 7.41049 22.3603 7.18449C23.0168 6.95848 23.7257 6.93283 24.3968 7.11078C25.0679 7.28874 25.6709 7.66227 26.1291 8.18387C26.5873 8.70547 26.8801 9.35157 26.9701 10.04C27.4776 10.1375 27.9424 10.3898 28.3005 10.7623C28.6587 11.1348 28.8926 11.6091 28.9701 12.12C29.5112 12.2571 30.0176 12.506 30.4568 12.8506C30.8959 13.1952 31.2581 13.6279 31.52 14.1209C31.7819 14.6139 31.9377 15.1562 31.9773 15.713C32.017 16.2698 31.9397 16.8288 31.7504 17.3539C31.5611 17.879 31.264 18.3587 30.8782 18.7621C30.4924 19.1656 30.0264 19.4837 29.5102 19.6962C28.994 19.9088 28.439 20.0109 27.881 19.996C27.323 19.9811 26.7743 19.8497 26.2701 19.61C25.7324 20.4831 24.9402 21.1706 24.0001 21.58V25L26.0001 26V27H18.0001V26L20.0001 25V22L17.3301 19.77ZM17.0001 17L20.0001 20V17H17.0001Z" fill="white"/>
</g>
</svg>
