<svg width="44" height="44" viewBox="0 0 44 44" fill="none" xmlns="http://www.w3.org/2000/svg">
<path d="M38.861 16.8664C38.861 7.55219 31.3109 0.00343704 21.9973 0.00343704C12.8151 0.00343704 5.35981 7.348 5.15287 16.4814C5.14669 16.4787 5.13912 16.4787 5.13362 16.4787C5.1295 16.5612 5.14256 16.6444 5.1405 16.7276C5.13981 16.7736 5.13362 16.8204 5.13362 16.8664C5.13362 17.0342 5.15425 17.1958 5.15906 17.3614C5.34881 28.3188 17.7341 39.8812 21.9973 43.9966C33.9701 34.2897 37.4557 25.2856 38.4629 20.4847C38.4994 20.3163 38.5317 20.1486 38.5626 19.9801C38.6596 19.4631 38.7269 18.9998 38.7737 18.6024C38.7737 18.5976 38.7751 18.5928 38.7751 18.5879C38.9009 17.4783 38.861 16.8664 38.861 16.8664Z" fill="#F64C4C"/>
<path d="M30 20.5C30 20.5 27.7 26 22 26C16.3 26 14 20.5 14 20.5C14 20.5 18.1 21.5 21.9 21.5C25.7 21.5 30 20.5 30 20.5Z" fill="white"/>
<path d="M31.3001 14.5C27.1001 13.2 23.8001 10 22.0001 10C20.2001 10 16.9001 13.2 12.7001 14.5C12.0001 14.7 11.7001 15.5 12.1001 16.1C13.0001 17.3 14.0001 17.4 14.0001 18.8C14.0001 18.8 18.0001 19.8 22.0001 19.8C26.0001 19.8 30.0001 18.8 30.0001 18.8C30.0001 17.4 31.0001 17.3 31.8001 16C32.2001 15.5 31.9001 14.7 31.3001 14.5ZM22.0001 18C20.9001 18 20.0001 16.1 20.0001 15C20.0001 15 20.9001 14 22.0001 14C23.1001 14 24.0001 15 24.0001 15C24.0001 16.1 23.1001 18 22.0001 18Z" fill="white"/>
</svg>
