<svg width="44" height="44" viewBox="0 0 44 44" fill="none" xmlns="http://www.w3.org/2000/svg">
<path d="M38.861 16.8664C38.861 7.55217 31.3109 0.00341797 21.9973 0.00341797C12.8151 0.00341797 5.35981 7.34798 5.15287 16.4814C5.14669 16.4787 5.13912 16.4787 5.13362 16.4787C5.1295 16.5612 5.14256 16.6444 5.1405 16.7276C5.13981 16.7736 5.13362 16.8204 5.13362 16.8664C5.13362 17.0342 5.15425 17.1958 5.15906 17.3614C5.34881 28.3188 17.7341 39.8812 21.9973 43.9966C33.9701 34.2897 37.4557 25.2856 38.4629 20.4847C38.4994 20.3163 38.5317 20.1486 38.5626 19.9801C38.6596 19.4631 38.7269 18.9998 38.7737 18.6024C38.7737 18.5976 38.7751 18.5928 38.7751 18.5879C38.9009 17.4783 38.861 16.8664 38.861 16.8664Z" fill="#F64C4C"/>
<path d="M27.025 12.615C27.1 12.8775 27.1825 13.155 27.2725 13.455C27.3475 13.725 27.415 14.0025 27.49 14.3025C27.7675 15.465 28 16.785 28 18C28 18.4125 27.6625 18.75 27.25 18.75C26.8375 18.75 26.5 18.4125 26.5 18C26.5 16.6425 26.17 15.105 25.825 13.8675H25.8175C25.7425 13.5825 25.66 13.305 25.5775 13.0575C25.4875 12.75 25.3975 12.48 25.3225 12.255H25.315C24.2725 12.09 23.155 12 22 12C21.88 12 21.7525 12 21.6325 12.0075C21.715 12.225 21.805 12.4725 21.8875 12.75C21.9625 12.9825 22.0375 13.23 22.1125 13.5C22.4575 14.715 22.75 16.275 22.75 18C22.75 18.4125 22.4125 18.75 22 18.75C21.5875 18.75 21.25 18.4125 21.25 18C21.25 16.275 20.9125 14.7 20.5675 13.5525C20.485 13.2825 20.4025 13.035 20.3275 12.8175C20.23 12.525 20.1325 12.285 20.05 12.09C18.715 12.21 17.4625 12.45 16.345 12.7875C16.4125 13.005 16.495 13.2375 16.585 13.5C16.6525 13.725 16.7275 13.965 16.8025 14.2125C17.1625 15.4275 17.5 16.8675 17.5 18C17.5 18.4125 17.1625 18.75 16.75 18.75C16.3375 18.75 16 18.4125 16 18C16 17.0625 15.7075 15.8175 15.385 14.7225C15.3175 14.475 15.2425 14.2425 15.1675 14.0175C15.085 13.7625 15.0025 13.5225 14.9275 13.305C12.3625 14.3925 10.75 16.0725 10.75 18C10.75 21.3675 15.6925 24 22 24C28.3075 24 33.25 21.3675 33.25 18C33.25 15.6 30.745 13.575 27.025 12.615Z" fill="white"/>
</svg>
