<svg width="44" height="44" viewBox="0 0 44 44" fill="none" xmlns="http://www.w3.org/2000/svg">
<path d="M38.861 16.8664C38.861 7.55219 31.3109 0.00343704 21.9973 0.00343704C12.8151 0.00343704 5.35981 7.348 5.15287 16.4814C5.14669 16.4787 5.13912 16.4787 5.13362 16.4787C5.1295 16.5612 5.14256 16.6444 5.1405 16.7276C5.13981 16.7736 5.13362 16.8204 5.13362 16.8664C5.13362 17.0342 5.15425 17.1958 5.15906 17.3614C5.34881 28.3188 17.7341 39.8812 21.9973 43.9966C33.9701 34.2897 37.4557 25.2856 38.4629 20.4847C38.4994 20.3163 38.5317 20.1486 38.5626 19.9801C38.6596 19.4631 38.7269 18.9998 38.7737 18.6024C38.7737 18.5976 38.7751 18.5928 38.7751 18.5879C38.9009 17.4783 38.861 16.8664 38.861 16.8664Z" fill="#F64C4C"/>
<path d="M31.4923 11.5957C31.4406 11.4874 31.3637 11.3931 31.268 11.3207C31.1723 11.2483 31.0606 11.2 30.9424 11.1797C30.8241 11.1594 30.7028 11.1677 30.5884 11.2041C30.4741 11.2404 30.3701 11.3036 30.2852 11.3885L26.6634 15.011L24.9935 15.0066L24.9891 13.3374L28.6124 9.71558C28.6972 9.63072 28.7604 9.52675 28.7967 9.4124C28.8331 9.29805 28.8414 9.17665 28.8211 9.0584C28.8008 8.94015 28.7524 8.8285 28.68 8.73282C28.6076 8.63714 28.5133 8.56022 28.4051 8.50853C27.5292 8.09256 26.5718 7.87643 25.6021 7.87575C24.5922 7.87558 23.5961 8.1102 22.6924 8.56108C21.7887 9.01196 21.0022 9.66675 20.395 10.4738C19.7878 11.2808 19.3766 12.2179 19.1937 13.2111C19.0109 14.2043 19.0614 15.2264 19.3414 16.1968L12.776 22.763C12.2001 23.34 11.8767 24.1219 11.8767 24.9371C11.8767 25.7523 12.2001 26.5343 12.776 27.1113L12.8885 27.2238C13.1733 27.5103 13.512 27.7375 13.8852 27.8922C14.2584 28.0469 14.6586 28.126 15.0626 28.125C15.8776 28.1229 16.659 27.7995 17.2371 27.225L23.804 20.6596C25.0104 21.0075 26.2916 20.9995 27.4935 20.6366C28.6954 20.2737 29.7669 19.5712 30.579 18.6138C31.3912 17.6563 31.9094 16.4846 32.0715 15.2396C32.2335 13.9946 32.0324 12.7291 31.4923 11.5957ZM15.1116 25.6391C14.9633 25.6391 14.8183 25.5951 14.6949 25.5127C14.5716 25.4303 14.4755 25.3132 14.4187 25.1761C14.3619 25.0391 14.3471 24.8883 14.376 24.7428C14.405 24.5973 14.4764 24.4637 14.5813 24.3588C14.6862 24.2539 14.8198 24.1825 14.9653 24.1535C15.1108 24.1246 15.2616 24.1395 15.3986 24.1962C15.5357 24.253 15.6528 24.3491 15.7352 24.4724C15.8176 24.5958 15.8616 24.7408 15.8616 24.8891C15.8617 24.9876 15.8423 25.0852 15.8046 25.1762C15.767 25.2672 15.7117 25.3499 15.6421 25.4196C15.5724 25.4892 15.4897 25.5445 15.3987 25.5822C15.3077 25.6198 15.2101 25.6392 15.1116 25.6391Z" fill="white"/>
</svg>
