<svg width="44" height="44" viewBox="0 0 44 44" fill="none" xmlns="http://www.w3.org/2000/svg">
<path d="M38.861 16.8664C38.861 7.55219 31.3109 0.00343704 21.9973 0.00343704C12.8151 0.00343704 5.35981 7.348 5.15287 16.4814C5.14669 16.4787 5.13912 16.4787 5.13362 16.4787C5.1295 16.5612 5.14256 16.6444 5.1405 16.7276C5.13981 16.7736 5.13362 16.8204 5.13362 16.8664C5.13362 17.0342 5.15425 17.1958 5.15906 17.3614C5.34881 28.3188 17.7341 39.8812 21.9973 43.9966C33.9701 34.2897 37.4557 25.2856 38.4629 20.4847C38.4994 20.3163 38.5317 20.1486 38.5626 19.9801C38.6596 19.4631 38.7269 18.9998 38.7737 18.6024C38.7737 18.5976 38.7751 18.5928 38.7751 18.5879C38.9009 17.4783 38.861 16.8664 38.861 16.8664Z" fill="#F64C4C"/>
<g clip-path="url(#clip0_224_269)">
<path d="M18.5427 17.9993C18.5427 18.6829 18.7454 19.3512 19.1253 19.9196C19.5051 20.4881 20.0449 20.9311 20.6765 21.1927C21.3081 21.4543 22.0031 21.5228 22.6736 21.3894C23.3442 21.256 23.9601 20.9268 24.4435 20.4434C24.9269 19.96 25.2561 19.3441 25.3895 18.6736C25.5228 18.0031 25.4544 17.3081 25.1928 16.6765C24.9311 16.0449 24.4881 15.505 23.9197 15.1252C23.3512 14.7454 22.6829 14.5427 21.9993 14.5427C21.0829 14.5439 20.2044 14.9084 19.5564 15.5564C18.9085 16.2044 18.5439 17.0829 18.5427 17.9993ZM21.9993 15.3821C22.5169 15.3821 23.0229 15.5356 23.4533 15.8232C23.8837 16.1108 24.2191 16.5195 24.4172 16.9977C24.6153 17.4759 24.6671 18.0022 24.5661 18.5098C24.4652 19.0175 24.2159 19.4838 23.8499 19.8498C23.4839 20.2159 23.0175 20.4651 22.5099 20.5661C22.0022 20.6671 21.476 20.6152 20.9978 20.4172C20.5196 20.2191 20.1108 19.8836 19.8232 19.4533C19.5357 19.0229 19.3822 18.5169 19.3822 17.9993C19.3831 17.3054 19.6591 16.6403 20.1497 16.1497C20.6403 15.6591 21.3055 15.3831 21.9993 15.3821Z" fill="white"/>
<path d="M30.4852 9.51484C28.8071 7.83635 26.669 6.69319 24.3412 6.22996C22.0134 5.76673 19.6005 6.00424 17.4077 6.91244C15.2149 7.82064 13.3407 9.35873 12.0221 11.3322C10.7036 13.3057 9.99984 15.6258 10 17.9993C9.99962 18.8389 10.0867 19.6763 10.2597 20.4979C10.2623 20.5213 10.2671 20.5445 10.2741 20.567C10.7349 22.671 11.7533 24.6121 13.2226 26.187C14.6919 27.7618 16.5579 28.9123 18.6248 29.5178C20.6918 30.1232 22.8836 30.1613 24.9704 29.6281C27.0572 29.0949 28.962 28.01 30.4852 26.4871C31.5995 25.3729 32.4835 24.05 33.0866 22.5942C33.6896 21.1383 34.0001 19.5778 34.0001 18.002C34.0001 16.4261 33.6896 14.8657 33.0866 13.4098C32.4835 11.9539 31.5995 10.6311 30.4852 9.51682V9.51484ZM14.1084 10.1084C15.6691 8.54778 17.6575 7.48501 19.8223 7.05446C21.987 6.62391 24.2307 6.84491 26.2699 7.68952C28.309 8.53412 30.0518 9.96441 31.2781 11.7995C32.5044 13.6346 33.1589 15.7921 33.1591 17.9993C33.1594 18.8769 33.057 19.7517 32.8539 20.6055C32.1987 20.6356 31.58 20.9161 31.1256 21.3892C30.5681 21.9556 30.5197 22.4671 30.4802 22.8785C30.4407 23.2898 30.416 23.592 29.8506 24.0236C29.6185 24.2004 29.1593 24.2211 28.6695 24.2408C28.1194 24.2641 27.4962 24.2902 26.9678 24.5579C26.5392 24.7741 26.2104 25.183 25.8924 25.5785C25.5566 25.9963 25.2094 26.4284 24.8114 26.5301C24.4761 26.616 24.0179 26.4239 23.533 26.2205C23.0481 26.017 22.5321 25.8012 21.9993 25.8012C21.4665 25.8012 20.9623 26.0141 20.4685 26.2195C19.9747 26.4249 19.5253 26.6145 19.1901 26.5291C18.7921 26.4274 18.4444 25.9953 18.1091 25.5776C17.7911 25.1825 17.4623 24.7732 17.0336 24.5569C16.5053 24.2897 15.8821 24.2631 15.332 24.2399C14.8441 24.2191 14.3829 24.1994 14.1509 24.0226C13.5553 23.5703 13.5218 23.2878 13.4699 22.8602C13.4235 22.4745 13.3657 21.9946 12.8976 21.4188C12.2418 20.6129 11.515 20.2337 11.0345 20.09C10.9047 19.4007 10.8394 18.7007 10.8395 17.9993C10.8355 16.5332 11.1224 15.0809 11.6835 13.7264C12.2447 12.3719 13.0688 11.1422 14.1084 10.1084ZM29.8916 25.8916C28.5187 27.2623 26.8124 28.2517 24.9408 28.7624C23.0692 29.2731 21.0968 29.2875 19.218 28.8041C17.3391 28.3207 15.6186 27.3562 14.2259 26.0056C12.8332 24.655 11.8163 22.9649 11.2755 21.1018C11.6493 21.3211 11.9786 21.6087 12.2463 21.9496C12.5613 22.3373 12.5964 22.6266 12.6364 22.9619C12.6966 23.4597 12.7648 24.0246 13.6437 24.6902C14.0852 25.0255 14.7014 25.0522 15.2975 25.0773C15.7853 25.0986 16.2895 25.1198 16.6564 25.305C16.923 25.4398 17.1818 25.7617 17.4553 26.1025C17.8578 26.6032 18.3141 27.1701 18.9832 27.3414C19.591 27.4965 20.2023 27.2426 20.7939 26.9928C21.2092 26.8209 21.6363 26.6407 21.9993 26.6407C22.3622 26.6407 22.7893 26.8204 23.2056 26.9938C23.6717 27.1913 24.1502 27.3888 24.6297 27.3888C24.7602 27.3887 24.8901 27.3721 25.0164 27.3394C25.6855 27.1681 26.1417 26.5987 26.5437 26.1005C26.8177 25.7598 27.0765 25.4378 27.3431 25.303C27.71 25.1178 28.2142 25.0966 28.7021 25.0754C29.2981 25.0502 29.9143 25.0235 30.3558 24.6882C31.2165 24.0339 31.2733 23.4355 31.3192 22.955C31.3537 22.5916 31.3784 22.3289 31.7271 21.9748C31.9659 21.7259 32.2725 21.5527 32.609 21.4766C32.0639 23.1419 31.1328 24.6547 29.8916 25.8916Z" fill="white"/>
<path d="M26.9026 16.5505C27.334 16.8571 27.8695 16.9799 28.3914 16.892C28.9133 16.8042 29.3789 16.5128 29.6862 16.0818C29.7507 15.9912 29.7766 15.8785 29.7582 15.7687C29.7397 15.659 29.6783 15.561 29.5877 15.4965C29.497 15.4319 29.3843 15.406 29.2746 15.4245C29.1648 15.4429 29.0668 15.5043 29.0023 15.595C28.8242 15.8445 28.5544 16.0132 28.252 16.0642C27.9497 16.1151 27.6395 16.044 27.3895 15.8666C27.2988 15.802 27.1862 15.7761 27.0764 15.7946C26.9666 15.813 26.8687 15.8744 26.8041 15.9651C26.7396 16.0558 26.7137 16.1684 26.7321 16.2782C26.7506 16.3879 26.8119 16.4859 26.9026 16.5505Z" fill="white"/>
<path d="M21.4067 22.515C21.3619 22.483 21.3111 22.4602 21.2574 22.4479C21.2037 22.4355 21.148 22.4339 21.0937 22.4431C21.0393 22.4522 20.9873 22.472 20.9406 22.5013C20.894 22.5306 20.8535 22.5688 20.8216 22.6138C20.6436 22.8636 20.3736 23.0325 20.0711 23.0833C19.7686 23.1342 19.4583 23.0628 19.2084 22.8849C19.1177 22.8203 19.005 22.7944 18.8953 22.8129C18.7855 22.8314 18.6875 22.8927 18.623 22.9834C18.5584 23.0741 18.5325 23.1867 18.551 23.2965C18.5695 23.4063 18.6308 23.5042 18.7215 23.5688C19.1528 23.8757 19.6883 23.9988 20.2104 23.911C20.7325 23.8233 21.1983 23.5318 21.5055 23.1007C21.5375 23.0557 21.5603 23.005 21.5727 22.9512C21.585 22.8974 21.5867 22.8418 21.5775 22.7874C21.5683 22.733 21.5485 22.6809 21.5192 22.6342C21.4899 22.5875 21.4517 22.547 21.4067 22.515Z" fill="white"/>
<path d="M26.323 20.0322C26.2654 20.0351 26.209 20.0498 26.1574 20.0754C26.1057 20.101 26.0598 20.137 26.0227 20.1811C25.9856 20.2252 25.9579 20.2765 25.9415 20.3318C25.925 20.3871 25.9202 20.4452 25.9272 20.5024C25.9342 20.5597 25.9529 20.6149 25.9822 20.6645C26.0115 20.7142 26.0507 20.7574 26.0974 20.7912C26.1441 20.8251 26.1972 20.8489 26.2536 20.8613C26.3099 20.8737 26.3682 20.8744 26.4247 20.8633C26.7292 20.8263 27.0359 20.9117 27.2774 21.1007C27.519 21.2896 27.6757 21.5667 27.7131 21.8711C27.7255 21.9728 27.7747 22.0665 27.8513 22.1344C27.928 22.2023 28.0269 22.2399 28.1293 22.24C28.1458 22.2399 28.1623 22.2389 28.1787 22.237C28.2335 22.2304 28.2863 22.213 28.3344 22.1859C28.3824 22.1588 28.4246 22.1224 28.4586 22.079C28.4925 22.0356 28.5176 21.9859 28.5324 21.9328C28.5472 21.8796 28.5513 21.8241 28.5446 21.7694C28.4792 21.245 28.2087 20.7678 27.7924 20.4422C27.3761 20.1167 26.8478 19.9693 26.323 20.0322Z" fill="white"/>
<path d="M23.9867 23.5199C23.9836 23.368 24.0107 23.2169 24.0664 23.0756C24.1221 22.9342 24.2053 22.8053 24.3112 22.6963C24.3494 22.6566 24.3795 22.6097 24.3996 22.5584C24.4198 22.5071 24.4297 22.4523 24.4287 22.3972C24.4276 22.3421 24.4158 22.2877 24.3938 22.2372C24.3717 22.1867 24.34 22.141 24.3003 22.1027C24.2606 22.0644 24.2138 22.0344 24.1625 22.0142C24.1112 21.9941 24.0564 21.9842 24.0013 21.9852C23.9462 21.9862 23.8918 21.9981 23.8412 22.0201C23.7907 22.0421 23.745 22.0739 23.7068 22.1136C23.3391 22.4944 23.1378 23.0056 23.147 23.5348C23.1563 24.064 23.3754 24.5679 23.7561 24.9356C23.7954 24.9755 23.8423 25.0072 23.8941 25.0287C23.9458 25.0502 24.0013 25.0611 24.0573 25.0608C24.1133 25.0605 24.1687 25.049 24.2202 25.027C24.2717 25.0049 24.3183 24.9728 24.3572 24.9325C24.3961 24.8922 24.4265 24.8445 24.4467 24.7922C24.4669 24.74 24.4764 24.6842 24.4747 24.6282C24.473 24.5722 24.4601 24.5172 24.4367 24.4662C24.4134 24.4153 24.3801 24.3696 24.3388 24.3317C24.2295 24.2263 24.1421 24.1003 24.0817 23.961C24.0212 23.8217 23.989 23.6718 23.9867 23.5199Z" fill="white"/>
<path d="M16.0894 20.4638C16.1668 20.3837 16.2091 20.2762 16.2072 20.1649C16.2052 20.0536 16.1592 19.9476 16.0791 19.8703C15.999 19.7929 15.8915 19.7506 15.7801 19.7525C15.6688 19.7545 15.5629 19.8005 15.4855 19.8806C15.1183 20.2617 14.9173 20.773 14.9266 21.3021C14.9358 21.8313 15.1546 22.3351 15.5349 22.7032C15.6152 22.7806 15.7229 22.823 15.8345 22.821C15.946 22.819 16.0522 22.7728 16.1297 22.6926C16.2071 22.6123 16.2495 22.5045 16.2476 22.393C16.2456 22.2814 16.1993 22.1752 16.1191 22.0978C15.8989 21.8848 15.7722 21.5932 15.7666 21.2869C15.7611 20.9806 15.8771 20.6846 16.0894 20.4638Z" fill="white"/>
<path d="M13.4378 18.5192C13.4678 18.5259 13.4984 18.5292 13.5292 18.5291C13.6326 18.5291 13.7324 18.4908 13.8093 18.4218C13.8863 18.3527 13.9351 18.2576 13.9463 18.1548C13.9575 18.052 13.9303 17.9487 13.87 17.8647C13.8097 17.7806 13.7205 17.7218 13.6195 17.6995C13.3203 17.6328 13.0597 17.4502 12.8949 17.1916C12.7302 16.9331 12.6747 16.6198 12.7406 16.3204C12.7543 16.2659 12.7569 16.2093 12.7483 16.1539C12.7398 16.0984 12.7202 16.0452 12.6907 15.9975C12.6612 15.9497 12.6225 15.9084 12.5767 15.8759C12.531 15.8433 12.4792 15.8203 12.4244 15.8082C12.3696 15.796 12.313 15.795 12.2578 15.8051C12.2026 15.8152 12.15 15.8363 12.1031 15.8671C12.0562 15.8979 12.0159 15.9378 11.9847 15.9845C11.9535 16.0311 11.932 16.0835 11.9214 16.1386C11.8075 16.6554 11.9032 17.1962 12.1874 17.6424C12.4717 18.0887 12.9214 18.404 13.4378 18.5192Z" fill="white"/>
<path d="M14.2782 13.5319C14.2957 13.5319 14.3132 13.5308 14.3306 13.5284C14.8557 13.4621 15.333 13.1901 15.6578 12.7722C15.9825 12.3543 16.1282 11.8246 16.0628 11.2994C16.0574 11.2435 16.0409 11.1893 16.0142 11.1399C15.9875 11.0905 15.9511 11.047 15.9073 11.0119C15.8634 10.9768 15.813 10.9509 15.759 10.9357C15.7049 10.9204 15.6484 10.9162 15.5927 10.9232C15.5369 10.9302 15.4832 10.9483 15.4346 10.9764C15.386 11.0046 15.3436 11.0422 15.3098 11.087C15.276 11.1319 15.2516 11.1831 15.2379 11.2375C15.2242 11.292 15.2217 11.3486 15.2303 11.4041C15.268 11.7084 15.1835 12.0152 14.9953 12.2573C14.8071 12.4994 14.5306 12.6569 14.2264 12.6954C14.1202 12.7081 14.0228 12.7608 13.9542 12.8429C13.8856 12.9249 13.8509 13.0301 13.8572 13.1369C13.8635 13.2437 13.9103 13.344 13.9881 13.4174C14.0659 13.4908 14.1688 13.5318 14.2758 13.5319H14.2782Z" fill="white"/>
<path d="M28.9149 25.8822C28.8783 25.8547 28.8322 25.8429 28.7868 25.8494C28.7414 25.8559 28.7005 25.8801 28.673 25.9168C28.0513 26.7429 25.4682 27.9512 24.4856 27.9947C24.4397 27.9957 24.3962 28.0148 24.3644 28.0479C24.3327 28.081 24.3155 28.1254 24.3164 28.1712C24.3174 28.2171 24.3366 28.2606 24.3697 28.2923C24.4028 28.3241 24.4471 28.3413 24.493 28.3404H24.5009C25.5008 28.2964 28.2103 27.1059 28.949 26.1247C28.9627 26.1065 28.9727 26.0859 28.9784 26.0639C28.9842 26.0418 28.9855 26.0189 28.9823 25.9964C28.9791 25.9739 28.9716 25.9522 28.96 25.9326C28.9484 25.913 28.9331 25.8959 28.9149 25.8822Z" fill="white"/>
<path d="M29.2088 13.9437C29.2778 13.9436 29.3458 13.9265 29.4066 13.8939C29.4674 13.8613 29.5193 13.8142 29.5576 13.7568C29.5958 13.6994 29.6194 13.6334 29.6261 13.5647C29.6328 13.496 29.6224 13.4267 29.596 13.363C29.4788 13.0796 29.4788 12.7614 29.596 12.478C29.7132 12.1946 29.938 11.9693 30.2211 11.8515C30.3206 11.8067 30.3988 11.725 30.4391 11.6235C30.4794 11.5221 30.4785 11.409 30.4368 11.3081C30.395 11.2073 30.3157 11.1267 30.2155 11.0834C30.1153 11.0401 30.0022 11.0375 29.9001 11.0762C29.4116 11.2797 29.0237 11.6686 28.8215 12.1576C28.6193 12.6467 28.6194 13.1959 28.8217 13.685C28.8535 13.7615 28.9072 13.8269 28.9761 13.8729C29.045 13.919 29.126 13.9436 29.2088 13.9437Z" fill="white"/>
<path d="M18.879 10.9641C19.1812 10.9109 19.4922 10.9798 19.7437 11.1557C19.9952 11.3316 20.1665 11.6002 20.2201 11.9024C20.2398 12.012 20.3021 12.1093 20.3935 12.1729C20.4849 12.2365 20.5979 12.2612 20.7075 12.2416C20.8171 12.2219 20.9144 12.1596 20.978 12.0682C21.0417 11.9768 21.0664 11.8638 21.0467 11.7542C20.9542 11.2329 20.6583 10.7698 20.2243 10.4666C19.7903 10.1634 19.2536 10.045 18.7323 10.1375C18.678 10.1472 18.6262 10.1676 18.5798 10.1973C18.5333 10.2271 18.4932 10.2657 18.4617 10.311C18.4302 10.3562 18.408 10.4072 18.3962 10.4611C18.3844 10.515 18.3833 10.5706 18.3931 10.6249C18.4028 10.6792 18.4231 10.731 18.4529 10.7774C18.4826 10.8238 18.5212 10.864 18.5665 10.8955C18.6117 10.927 18.6628 10.9492 18.7166 10.961C18.7705 10.9728 18.8262 10.9739 18.8804 10.9641H18.879Z" fill="white"/>
<path d="M17.3577 15.234C17.4025 15.234 17.4471 15.2267 17.4895 15.2123C17.5419 15.195 17.5903 15.1675 17.632 15.1315C17.6737 15.0955 17.7079 15.0516 17.7327 15.0023C17.7575 14.9531 17.7723 14.8994 17.7763 14.8445C17.7803 14.7895 17.7735 14.7343 17.7562 14.6819C17.6597 14.3908 17.6827 14.0733 17.8204 13.7991C17.958 13.525 18.1988 13.3168 18.49 13.2203C18.5957 13.1853 18.6831 13.1097 18.7331 13.0102C18.783 12.9107 18.7914 12.7954 18.7564 12.6897C18.7213 12.584 18.6458 12.4966 18.5462 12.4466C18.4467 12.3967 18.3315 12.3883 18.2258 12.4233C17.7236 12.5904 17.3083 12.9499 17.0708 13.4228C16.8334 13.8958 16.7932 14.4436 16.9592 14.9461C16.9869 15.0299 17.0403 15.1028 17.1119 15.1545C17.1834 15.2062 17.2694 15.234 17.3577 15.234Z" fill="white"/>
<path d="M23.938 10.6032C23.9824 10.6189 24.0291 10.6269 24.0762 10.6269C24.1755 10.627 24.2716 10.592 24.3475 10.528C24.4234 10.464 24.4741 10.3751 24.4907 10.2772C24.5073 10.1794 24.4886 10.0788 24.4381 9.99335C24.3875 9.90792 24.3083 9.84318 24.2145 9.81063C24.071 9.76066 23.9388 9.68292 23.8255 9.58183C23.7121 9.48075 23.6197 9.3583 23.5537 9.2215C23.4876 9.0847 23.4492 8.93623 23.4406 8.78457C23.432 8.63291 23.4533 8.48103 23.5034 8.33763C23.5266 8.28468 23.5385 8.22753 23.5386 8.16975C23.5386 8.11196 23.5267 8.0548 23.5036 8.00182C23.4805 7.94885 23.4467 7.90122 23.4044 7.86191C23.362 7.8226 23.312 7.79245 23.2575 7.77336C23.203 7.75427 23.1451 7.74665 23.0874 7.75097C23.0298 7.7553 22.9737 7.77147 22.9226 7.79848C22.8715 7.82549 22.8266 7.86276 22.7906 7.90795C22.7546 7.95314 22.7283 8.00528 22.7134 8.06111C22.6269 8.30859 22.5901 8.57067 22.605 8.83238C22.6199 9.09409 22.6863 9.3503 22.8002 9.58637C22.9142 9.82244 23.0735 10.0337 23.2692 10.2082C23.4648 10.3827 23.6929 10.5169 23.9404 10.6032H23.938Z" fill="white"/>
<path d="M23.9182 12.4194C23.9328 12.4725 23.9577 12.5223 23.9915 12.5659C24.0254 12.6094 24.0674 12.6459 24.1154 12.6732C24.1633 12.7005 24.2161 12.718 24.2708 12.7249C24.3255 12.7318 24.3811 12.7278 24.4342 12.7132C24.73 12.6322 25.0459 12.6718 25.3124 12.8235C25.5789 12.9751 25.7744 13.2264 25.8559 13.522C25.8802 13.6106 25.933 13.6888 26.006 13.7446C26.0791 13.8003 26.1684 13.8306 26.2603 13.8306C26.2978 13.8305 26.3352 13.8256 26.3714 13.8158C26.4788 13.7863 26.57 13.7153 26.6251 13.6186C26.6802 13.5218 26.6946 13.4072 26.6652 13.2998C26.5958 13.047 26.4773 12.8104 26.3164 12.6034C26.1555 12.3964 25.9554 12.2232 25.7275 12.0936C25.4997 11.9639 25.2485 11.8805 24.9884 11.8479C24.7283 11.8153 24.4643 11.8344 24.2115 11.9038C24.1043 11.9334 24.0132 12.0043 23.9582 12.1009C23.9032 12.1976 23.8889 12.3121 23.9182 12.4194Z" fill="white"/>
<path d="M29.9494 17.1815C29.842 17.211 29.7507 17.2819 29.6956 17.3787C29.6405 17.4755 29.6261 17.5902 29.6556 17.6975C29.6851 17.8049 29.756 17.8962 29.8528 17.9513C29.9495 18.0064 30.0642 18.0208 30.1716 17.9914C30.3181 17.951 30.471 17.9399 30.6218 17.9587C30.7726 17.9775 30.9181 18.0258 31.0502 18.101C31.1822 18.1761 31.2981 18.2765 31.3913 18.3965C31.4845 18.5165 31.5531 18.6537 31.5933 18.8002C31.6177 18.8888 31.6704 18.9669 31.7435 19.0227C31.8165 19.0784 31.9058 19.1087 31.9977 19.1088C32.0354 19.1087 32.0729 19.1037 32.1093 19.094C32.2165 19.0644 32.3076 18.9934 32.3626 18.8966C32.4176 18.7999 32.432 18.6853 32.4026 18.578C32.2624 18.0676 31.9252 17.6337 31.4651 17.3718C31.0051 17.11 30.4599 17.0415 29.9494 17.1815Z" fill="white"/>
<path d="M15.2343 16.4838C15.128 16.5142 15.0379 16.5853 14.9837 16.6817C14.9296 16.7782 14.9156 16.8921 14.945 16.9987C14.9743 17.1054 15.0446 17.1961 15.1405 17.2512C15.2363 17.3064 15.3501 17.3214 15.457 17.2931C15.6035 17.2529 15.7565 17.2419 15.9072 17.2608C16.058 17.2797 16.2035 17.3281 16.3355 17.4033C16.4676 17.4784 16.5835 17.5789 16.6767 17.6988C16.7699 17.8188 16.8385 17.956 16.8787 18.1025C16.8929 18.1561 16.9175 18.2064 16.9513 18.2504C16.985 18.2944 17.0272 18.3313 17.0752 18.359C17.1233 18.3866 17.1764 18.4044 17.2314 18.4114C17.2865 18.4185 17.3423 18.4145 17.3958 18.3998C17.4493 18.3851 17.4993 18.3599 17.543 18.3257C17.5867 18.2915 17.6232 18.2491 17.6504 18.2007C17.6775 18.1524 17.6948 18.0991 17.7013 18.044C17.7078 17.9889 17.7033 17.9331 17.688 17.8798C17.5476 17.3694 17.2102 16.9356 16.7501 16.6739C16.29 16.4121 15.7448 16.3437 15.2343 16.4838Z" fill="white"/>
</g>
<defs>
<clipPath id="clip0_224_269">
<rect width="24" height="24" fill="white" transform="translate(10 6)"/>
</clipPath>
</defs>
</svg>
