<svg width="44" height="44" viewBox="0 0 44 44" fill="none" xmlns="http://www.w3.org/2000/svg">
<path d="M38.861 16.8664C38.861 7.55219 31.3109 0.00343704 21.9973 0.00343704C12.8151 0.00343704 5.35981 7.348 5.15287 16.4814C5.14669 16.4787 5.13912 16.4787 5.13362 16.4787C5.1295 16.5612 5.14256 16.6444 5.1405 16.7276C5.13981 16.7736 5.13362 16.8204 5.13362 16.8664C5.13362 17.0342 5.15425 17.1958 5.15906 17.3614C5.34881 28.3188 17.7341 39.8812 21.9973 43.9966C33.9701 34.2897 37.4557 25.2856 38.4629 20.4847C38.4994 20.3163 38.5317 20.1486 38.5626 19.9801C38.6596 19.4631 38.7269 18.9998 38.7737 18.6024C38.7737 18.5976 38.7751 18.5928 38.7751 18.5879C38.9009 17.4783 38.861 16.8664 38.861 16.8664Z" fill="#0052CC"/>
<mask id="mask0_233_347" style="mask-type:luminance" maskUnits="userSpaceOnUse" x="11" y="4" width="24" height="24">
<path d="M35 4H11V28H35V4Z" fill="white"/>
</mask>
<g mask="url(#mask0_233_347)">
<path d="M32 20V18L24 13V7.5C24 6.67 23.33 6 22.5 6C21.67 6 21 6.67 21 7.5V13L13 18V20L21 17.5V23L19 24.5V26L22.5 25L26 26V24.5L24 23V17.5L32 20Z" fill="white"/>
</g>
</svg>
