<svg width="44" height="44" viewBox="0 0 44 44" fill="none" xmlns="http://www.w3.org/2000/svg">
<path d="M38.861 16.8664C38.861 7.55219 31.3109 0.00343704 21.9973 0.00343704C12.8151 0.00343704 5.35981 7.348 5.15287 16.4814C5.14669 16.4787 5.13912 16.4787 5.13362 16.4787C5.1295 16.5612 5.14256 16.6444 5.1405 16.7276C5.13981 16.7736 5.13362 16.8204 5.13362 16.8664C5.13362 17.0342 5.15425 17.1958 5.15906 17.3614C5.34881 28.3188 17.7341 39.8812 21.9973 43.9966C33.9701 34.2897 37.4557 25.2856 38.4629 20.4847C38.4994 20.3163 38.5317 20.1486 38.5626 19.9801C38.6596 19.4631 38.7269 18.9998 38.7737 18.6024C38.7737 18.5976 38.7751 18.5928 38.7751 18.5879C38.9009 17.4783 38.861 16.8664 38.861 16.8664Z" fill="#0052CC"/>
<path d="M13 27.5H12.25C11.8522 27.5 11.4706 27.342 11.1893 27.0607C10.908 26.7794 10.75 26.3978 10.75 26V10.25C10.75 9.85218 10.908 9.47064 11.1893 9.18934C11.4706 8.90804 11.8522 8.75 12.25 8.75H13C13.3978 8.75 13.7794 8.90804 14.0607 9.18934C14.342 9.47064 14.5 9.85218 14.5 10.25V26C14.5 26.3978 14.342 26.7794 14.0607 27.0607C13.7794 27.342 13.3978 27.5 13 27.5Z" fill="white"/>
<path d="M21.25 13.25C21.25 12.8522 21.092 12.4706 20.8107 12.1893C20.5294 11.908 20.1478 11.75 19.75 11.75H16.75C16.3522 11.75 15.9706 11.908 15.6893 12.1893C15.408 12.4706 15.25 12.8522 15.25 13.25V14.5625C15.25 14.6122 15.2698 14.6599 15.3049 14.6951C15.3401 14.7302 15.3878 14.75 15.4375 14.75H21.0625C21.1122 14.75 21.1599 14.7302 21.1951 14.6951C21.2302 14.6599 21.25 14.6122 21.25 14.5625V13.25Z" fill="white"/>
<path d="M15.25 26C15.25 26.3978 15.408 26.7794 15.6893 27.0607C15.9706 27.342 16.3522 27.5 16.75 27.5H19.75C20.1478 27.5 20.5294 27.342 20.8107 27.0607C21.092 26.7794 21.25 26.3978 21.25 26V24.5938C21.25 24.5689 21.2401 24.545 21.2225 24.5275C21.205 24.5099 21.1811 24.5 21.1562 24.5H15.3438C15.3189 24.5 15.295 24.5099 15.2775 24.5275C15.2599 24.545 15.25 24.5689 15.25 24.5938V26Z" fill="white"/>
<path d="M21.1562 16.25H15.3438C15.292 16.25 15.25 16.292 15.25 16.3438V22.9062C15.25 22.958 15.292 23 15.3438 23H21.1562C21.208 23 21.25 22.958 21.25 22.9062V16.3438C21.25 16.292 21.208 16.25 21.1562 16.25Z" fill="white"/>
<path d="M25 27.5H23.5C23.1022 27.5 22.7206 27.342 22.4393 27.0607C22.158 26.7794 22 26.3978 22 26V8C22 7.60218 22.158 7.22064 22.4393 6.93934C22.7206 6.65804 23.1022 6.5 23.5 6.5H25C25.3978 6.5 25.7794 6.65804 26.0607 6.93934C26.342 7.22064 26.5 7.60218 26.5 8V26C26.5 26.3978 26.342 26.7794 26.0607 27.0607C25.7794 27.342 25.3978 27.5 25 27.5Z" fill="white"/>
<path d="M33.2448 25.8805L31.734 9.94297C31.6646 9.20938 30.94 8.67735 30.1154 8.75656L28.6225 8.89719C27.7979 8.97547 27.1857 9.6336 27.2551 10.3672L28.7659 26.3047C28.8353 27.0383 29.56 27.5703 30.3845 27.4911L31.8775 27.3505C32.702 27.2722 33.3142 26.6141 33.2448 25.8805Z" fill="white"/>
</svg>
