<svg width="44" height="44" viewBox="0 0 44 44" fill="none" xmlns="http://www.w3.org/2000/svg">
<path d="M38.861 16.8664C38.861 7.55219 31.3109 0.00343704 21.9973 0.00343704C12.8151 0.00343704 5.35981 7.348 5.15287 16.4814C5.14669 16.4787 5.13912 16.4787 5.13362 16.4787C5.1295 16.5612 5.14256 16.6444 5.1405 16.7276C5.13981 16.7736 5.13362 16.8204 5.13362 16.8664C5.13362 17.0342 5.15425 17.1958 5.15906 17.3614C5.34881 28.3188 17.7341 39.8812 21.9973 43.9966C33.9701 34.2897 37.4557 25.2856 38.4629 20.4847C38.4994 20.3163 38.5317 20.1486 38.5626 19.9801C38.6596 19.4631 38.7269 18.9998 38.7737 18.6024C38.7737 18.5976 38.7751 18.5928 38.7751 18.5879C38.9009 17.4783 38.861 16.8664 38.861 16.8664Z" fill="#0052CC"/>
<path d="M32.792 10.5094C31.7544 10.5023 30.8233 11.3334 29.9195 11.7572C29.3743 10.1377 28.0936 9 26.6 9C26.177 9 25.7769 9.10781 25.4 9.27562V8.625C25.4 8.00344 24.9969 7.5 24.5 7.5H23.9C23.4031 7.5 23 8.00344 23 8.625V10.9209C21.7254 9.73031 20.0465 9 18.2 9C14.2235 9 11 12.3581 11 16.5V27.75C11 28.1644 11.2685 28.5 11.6 28.5H14C14.3315 28.5 14.6 28.1644 14.6 27.75V24.4317C15.8131 25.1048 17.252 25.5 18.8 25.5C20.348 25.5 21.7869 25.1048 23 24.4317V27.75C23 28.1644 23.2685 28.5 23.6 28.5H26C26.3315 28.5 26.6 28.1644 26.6 27.75V19.5H31.4V21C31.4 21.4144 31.6685 21.75 32 21.75H33.2C33.5315 21.75 33.8 21.4144 33.8 21V19.5C34.4626 19.5 35 18.8283 35 18V13.6866C35 12.0886 34.0704 10.5183 32.792 10.5094ZM27.8 14.25C27.4685 14.25 27.2 13.9144 27.2 13.5C27.2 13.0856 27.4685 12.75 27.8 12.75C28.1315 12.75 28.4 13.0856 28.4 13.5C28.4 13.9144 28.1315 14.25 27.8 14.25Z" fill="white"/>
</svg>
